<svg width="265" height="118" viewBox="0 0 265 118" fill="none" xmlns="http://www.w3.org/2000/svg">
<path d="M37.4118 5.73006L30.2022 10.4404V43.3153V76.2387H48.2748C66.2013 76.2387 66.3474 76.2387 65.7142 75.2675C65.3245 74.7334 63.1811 71.577 60.8916 68.2264L56.7509 62.205L50.8079 62.1564H44.8162L44.7188 31.5638L44.5726 0.971214L37.4118 5.73006Z" fill="black"/>
<path d="M159.292 5.82718C155.152 8.49796 151.596 10.7317 151.352 10.7803C151.157 10.8774 149.111 20.5408 146.87 32.2436C144.581 43.9951 142.681 53.6585 142.584 53.707C142.437 53.8527 141.317 50.5021 134.838 29.9613C133.231 24.9597 132.695 23.7943 132.11 24.0371C130.99 24.4741 121.832 30.3013 121.783 30.5926C121.783 30.7383 124.901 41.0815 128.749 53.6585L135.715 76.4815H143.46H151.206L159.146 39.0906C163.482 18.5013 166.989 1.55393 166.94 1.35969C166.892 1.16545 163.433 3.1564 159.292 5.82718Z" fill="black"/>
<path d="M234.7 5.73006L227.491 10.4404V43.3153V76.2387H245.563C263.49 76.2387 263.636 76.2387 263.003 75.2675C262.613 74.7334 260.47 71.577 258.18 68.2264L254.04 62.205L248.097 62.1564H242.105L242.007 31.5638L241.861 0.971215L234.7 5.73006Z" fill="black"/>
<path d="M10.6195 22.8716L3.40991 27.679V51.9589V76.2387H10.7169H18.0239V47.1029C18.0239 31.0782 17.9752 17.9671 17.9265 18.0157C17.829 18.0157 14.5652 20.2008 10.6195 22.8716Z" fill="#074AEA"/>
<path d="M85.8814 22.823C74.3364 24.9111 66.7371 33.5547 65.2757 46.1803C64.4963 52.9786 65.9577 60.7482 68.9292 65.8955C71.9007 70.8486 77.7463 75.0247 83.8354 76.4815C87.8299 77.4041 95.3318 77.4041 99.2775 76.4815C107.364 74.5877 113.745 68.9062 115.207 62.2535L115.548 60.6996H108.777H102.054L100.739 62.3506C98.7417 64.8272 95.8189 66.0412 91.7757 66.0412C87.6351 66.0412 85.102 64.9728 82.7638 62.2049C80.8639 60.0683 79.8897 57.4461 79.8897 54.6782V52.93H97.9623H116.084L115.84 47.6856C115.353 37.5852 111.699 30.544 104.782 26.1251C100.203 23.2601 91.7757 21.8033 85.8814 22.823ZM96.6957 35.1086C98.7417 36.2741 101.031 39.2362 101.518 41.3728L101.811 42.7325H90.8989H79.9871L80.4742 41.0329C81.4972 37.7309 84.6636 34.9144 88.4145 33.9432C90.6066 33.3605 94.5036 33.9432 96.6957 35.1086Z" fill="black"/>
<path d="M187.79 22.8716C175.222 24.9597 167.086 35.6428 167.086 50.0165C167.086 58.6601 169.522 65.1671 174.588 70.2173C179.557 75.1704 185.159 77.2099 193.635 77.2099C205.716 77.2099 214.29 71.9169 217.066 62.8848L217.699 60.6996H210.88H204.06L202.501 62.4963C201.673 63.4675 200.065 64.6329 198.994 65.1185C196.655 66.1869 191.151 66.3325 188.861 65.4099C185.013 63.7589 182.529 60.214 181.895 55.4552L181.554 52.9301H199.968H218.381L218.04 48.414C217.358 39.3334 215.215 33.8461 210.636 29.2815C205.278 23.9399 196.363 21.4148 187.79 22.8716ZM196.607 34.2346C199.237 35.0115 202.209 37.6338 203.086 39.9646C204.206 42.8297 204.596 42.7325 192.856 42.7325H182.09L182.431 41.3729C183.259 38.0222 185.938 35.3515 189.641 34.186C192.369 33.3605 193.733 33.3605 196.607 34.2346Z" fill="black"/>
<path d="M178.534 91.972C175.319 93.3803 173.809 96.1967 173.809 100.81C173.76 104.112 174.637 106.103 176.78 107.948C179.46 110.182 184.136 110.036 185.841 107.657C186.523 106.686 186.572 106.734 186.572 108.919C186.572 111.93 185.987 112.95 183.941 113.63C181.993 114.261 179.898 113.872 178.485 112.561C177.755 111.881 177.073 111.736 176.147 111.979C174.345 112.416 174.15 113.047 175.368 114.358C179.07 118.291 187.351 117.563 189.592 113.144C190.323 111.687 190.469 109.988 190.469 101.587V91.7778H188.52C186.718 91.7778 186.572 91.8749 186.572 93.0889C186.523 94.3029 186.474 94.3514 186.036 93.5745C185.403 92.5062 182.723 91.2922 181.116 91.2922C180.483 91.3407 179.362 91.6321 178.534 91.972ZM185.305 96.1967C186.377 97.4107 186.572 98.1877 186.572 100.519C186.572 104.258 185.013 106.346 182.236 106.346C181.262 106.346 179.995 106.006 179.411 105.617C176.975 103.918 176.78 98.3819 179.021 95.9539C180.775 94.0601 183.6 94.1572 185.305 96.1967Z" fill="black"/>
<path d="M200.942 91.8749C200.406 92.1663 199.676 92.749 199.383 93.1375C198.847 93.8173 198.75 93.7687 198.75 92.8461C198.75 91.9235 198.458 91.7778 196.801 91.7778H194.853V100.761V109.745H196.801H198.75V103.626C198.75 100.276 198.945 97.1679 199.237 96.6823C199.822 95.5654 202.355 94.4971 203.621 94.8371C204.449 95.0313 204.596 94.8371 204.596 93.186C204.596 91.4379 204.498 91.2922 203.28 91.2922C202.501 91.2922 201.478 91.5836 200.942 91.8749Z" fill="black"/>
<path d="M210.928 92.3605C208.395 93.6716 207.275 95.1284 206.495 98.0906C204.937 104.015 208.346 109.599 213.802 110.133C218.722 110.57 222.571 107.268 223.009 102.17C223.545 95.8082 219.94 91.2922 214.338 91.2922C213.656 91.2922 212.097 91.7778 210.928 92.3605ZM217.943 96.1967C219.015 97.4593 219.21 98.1391 219.21 100.761C219.21 103.384 219.015 104.063 217.943 105.375C216.774 106.734 216.384 106.88 214.436 106.734C212.487 106.588 212 106.346 211.074 104.937C209.126 102.072 209.808 96.6338 212.244 95.2255C212.731 94.9342 213.9 94.6914 214.923 94.6914C216.287 94.6914 216.969 95.0313 217.943 96.1967Z" fill="black"/>
<path d="M253.017 91.972C252.14 92.3605 251.214 93.0403 250.922 93.5745C250.483 94.3514 250.435 94.3029 250.386 93.0889C250.386 91.8749 250.24 91.7778 248.438 91.7778H246.489V104.16V116.543H248.438H250.386V111.93V107.365L251.555 108.531C255.306 112.27 261.736 109.405 263.003 103.481C264.659 95.7111 259.106 89.3498 253.017 91.972ZM257.547 95.4198C259.934 97.1193 260.177 103.432 257.937 105.666C256.28 107.317 253.406 107.268 251.799 105.569C250.776 104.5 250.63 103.869 250.63 100.664C250.63 97.265 250.727 96.9737 251.994 95.8568C253.601 94.4971 255.988 94.3029 257.547 95.4198Z" fill="black"/>
<path d="M227.101 99.256C227.247 106.443 227.296 106.831 228.416 107.997C230.901 110.619 235.675 110.716 237.477 108.142C238.208 107.123 238.208 107.123 238.208 108.434C238.208 109.648 238.354 109.745 240.156 109.745H242.105V100.761V91.7778H240.156H238.208V97.9449C238.159 102.072 237.964 104.403 237.574 104.937C236.064 106.928 233.336 107.22 231.68 105.569C231.047 104.986 230.901 103.578 230.901 98.2848V91.7778H228.903H226.955L227.101 99.256Z" fill="black"/>
</svg>
