<svg width="80" height="80" viewBox="0 0 80 80" fill="none" xmlns="http://www.w3.org/2000/svg">
<g clip-path="url(#clip0_22_600)">
<path d="M42.5262 74.9473C43.2239 74.9473 43.7894 74.3817 43.7894 73.6842V68.6316C43.7894 67.9339 43.2237 67.3684 42.5262 67.3684C41.8286 67.3684 41.2631 67.9341 41.2631 68.6316V73.6842C41.2631 74.3819 41.8287 74.9473 42.5262 74.9473Z" fill="#0047B2"/>
<path d="M56 74.9473C56.6977 74.9473 57.2631 74.3817 57.2631 73.6842V68.6316C57.2631 67.9339 56.6975 67.3684 56 67.3684C55.3023 67.3684 54.7369 67.9341 54.7369 68.6316V73.6842C54.7369 74.3819 55.3023 74.9473 56 74.9473Z" fill="#0047B2"/>
<path d="M49.2631 74.9473C49.9608 74.9473 50.5262 74.3817 50.5262 73.6842V68.6316C50.5262 67.9339 49.9606 67.3684 49.2631 67.3684C48.5655 67.3684 48 67.9341 48 68.6316V73.6842C48 74.3819 48.5656 74.9473 49.2631 74.9473Z" fill="#0047B2"/>
<path d="M72 5.05266H32.842V4.63156C32.842 2.07766 30.7645 0 28.2105 0H14.7369C12.183 0 10.1053 2.07766 10.1053 4.63156V5.05266H8C3.58891 5.05266 0 8.64156 0 13.0527V63.5789C0 67.99 3.58891 71.5789 8 71.5789H33.1655L33.9813 74.2988C35.0045 77.7087 38.0837 80 41.6439 80H56.8823C60.4425 80 63.5219 77.7087 64.5448 74.2988L65.3608 71.5789H72C76.4111 71.5789 80 67.99 80 63.5789V13.0527C80 8.64156 76.4111 5.05266 72 5.05266ZM12.6316 4.63156C12.6316 3.47063 13.5759 2.52625 14.7369 2.52625H28.2106C29.3716 2.52625 30.3159 3.47063 30.3159 4.63156V15.1578H12.6316V4.63156ZM2.52625 13.0527C2.52625 10.0345 4.98187 7.57891 8 7.57891H10.1053V15.1578H2.52625V13.0527ZM63.2197 69.9245C63.2136 69.9428 63.2081 69.9614 63.203 69.98L62.1252 73.573C61.4252 75.9061 59.3183 77.4737 56.8823 77.4737H41.6439C39.208 77.4737 37.1011 75.9061 36.4011 73.5731L35.3233 69.9802C35.3181 69.9614 35.3127 69.943 35.3066 69.9247L33.7819 64.842H64.7444L63.2197 69.9245ZM32.1134 62.3158C32.0944 62.3153 32.075 62.3153 32.0558 62.3158H31.5788C30.4178 62.3158 29.4734 61.3714 29.4734 60.2105C29.4734 59.0495 30.4178 58.1052 31.5788 58.1052H41.263V62.3156H32.1134V62.3158ZM43.7895 62.3158V58.1053H66.9475C68.1084 58.1053 69.0528 59.0497 69.0528 60.2106C69.0528 61.3716 68.1084 62.3159 66.9475 62.3159H66.4705C66.4512 62.3155 66.4319 62.3155 66.4128 62.3159H43.7895V62.3158ZM43.7895 55.5789V50.1052C43.7895 47.087 46.2452 44.6314 49.2633 44.6314C52.2814 44.6314 54.737 47.087 54.737 50.1052V55.5789H43.7895ZM77.4737 63.5789C77.4737 66.597 75.0181 69.0527 72 69.0527H66.1188L67.3881 64.8213C69.7361 64.5986 71.5789 62.6158 71.5789 60.2106C71.5789 57.6567 69.5013 55.5791 66.9473 55.5791H57.2631V50.1053C57.2631 45.6942 53.6742 42.1053 49.2631 42.1053C44.852 42.1053 41.2631 45.6942 41.2631 50.1053V55.5791H31.5789C29.025 55.5791 26.9473 57.6567 26.9473 60.2106C26.9473 62.6158 28.7902 64.5986 31.1381 64.8213L32.4075 69.0527H8C4.98187 69.0527 2.52625 66.597 2.52625 63.5789V17.6842H77.4736V63.5789H77.4737ZM77.4737 15.158H32.842V7.57891H72C75.0181 7.57891 77.4737 10.0345 77.4737 13.0527V15.158Z" fill="#0047B2"/>
<path d="M65.2631 10.0211C64.5655 10.0211 64 10.5867 64 11.2842V11.4526C64 12.1503 64.5656 12.7158 65.2631 12.7158C65.9606 12.7158 66.5262 12.1501 66.5262 11.4526V11.2842C66.5262 10.5866 65.9608 10.0211 65.2631 10.0211Z" fill="#0047B2"/>
<path d="M70.3158 10.0211C69.6181 10.0211 69.0527 10.5867 69.0527 11.2842V11.4526C69.0527 12.1503 69.6183 12.7158 70.3158 12.7158C71.0135 12.7158 71.5789 12.1501 71.5789 11.4526V11.2842C71.5789 10.5866 71.0135 10.0211 70.3158 10.0211Z" fill="#0047B2"/>
<path d="M33.0947 26.1053H70.1474C70.845 26.1053 71.4105 25.5397 71.4105 24.8422C71.4105 24.1445 70.8449 23.5791 70.1474 23.5791H33.0947C32.397 23.5791 31.8316 24.1447 31.8316 24.8422C31.8316 25.5397 32.3972 26.1053 33.0947 26.1053Z" fill="#0047B2"/>
<path d="M60.2104 10.0211C59.5128 10.0211 58.9473 10.5867 58.9473 11.2842V11.4526C58.9473 12.1503 59.5129 12.7158 60.2104 12.7158C60.9081 12.7158 61.4736 12.1501 61.4736 11.4526V11.2842C61.4737 10.5866 60.9081 10.0211 60.2104 10.0211Z" fill="#0047B2"/>
<path d="M12.8842 63.158H22.9895C23.6872 63.158 24.2527 62.5923 24.2527 61.8948C24.2527 61.1972 23.687 60.6317 22.9895 60.6317H12.8842C11.7233 60.6317 10.7789 59.6873 10.7789 58.5264V36.6316C10.7789 35.4706 11.7233 34.5262 12.8842 34.5262H66.7789C67.9398 34.5262 68.8842 35.4706 68.8842 36.6316V51.7895C68.8842 52.4872 69.4498 53.0527 70.1473 53.0527C70.845 53.0527 71.4105 52.487 71.4105 51.7895V36.6316C71.4105 34.0777 69.3328 32 66.7789 32H12.8842C10.3303 32 8.25266 34.0777 8.25266 36.6316V58.5262C8.25266 61.0803 10.3303 63.158 12.8842 63.158Z" fill="#0047B2"/>
<path d="M9.51578 26.1053H21.3053C22.003 26.1053 22.5684 25.5397 22.5684 24.8422C22.5684 24.1445 22.0028 23.5791 21.3053 23.5791H9.51578C8.81812 23.5791 8.25266 24.1447 8.25266 24.8422C8.25266 25.5397 8.81812 26.1053 9.51578 26.1053Z" fill="#0047B2"/>
</g>
<defs>
<clipPath id="clip0_22_600">
<rect width="80" height="80" fill="white"/>
</clipPath>
</defs>
</svg>
