<svg width="80" height="80" viewBox="0 0 80 80" fill="none" xmlns="http://www.w3.org/2000/svg">
<path d="M73.6 3.20001H25.6C23.84 3.20001 22.4 4.64001 22.4 6.40001V9.60001H19.2C17.44 9.60001 16 11.04 16 12.8V16H12.8C11.04 16 9.6 17.44 9.6 19.2V22.4H6.4C4.64 22.4 3.2 23.84 3.2 25.6V73.6C3.2 75.36 4.64 76.8 6.4 76.8H54.4C56.16 76.8 57.6 75.36 57.6 73.6V70.4H60.8C62.56 70.4 64 68.96 64 67.2V64H67.2C68.96 64 70.4 62.56 70.4 60.8V57.6H73.6C75.36 57.6 76.8 56.16 76.8 54.4V6.40001C76.8 4.64001 75.36 3.20001 73.6 3.20001ZM24 6.40001C24 5.52001 24.72 4.80001 25.6 4.80001H73.6C74.48 4.80001 75.2 5.52001 75.2 6.40001V11.2H69.92C69.36 10.24 68.32 9.60001 67.2 9.60001H66.4H61.6H24V6.40001ZM17.6 12.8C17.6 11.92 18.32 11.2 19.2 11.2H67.2C68.08 11.2 68.8 11.92 68.8 12.8V17.6H63.52C62.96 16.64 61.92 16 60.8 16H60H55.2H17.6V12.8ZM11.2 19.2C11.2 18.32 11.92 17.6 12.8 17.6H60.8C61.68 17.6 62.4 18.32 62.4 19.2V24H57.12C56.56 23.04 55.52 22.4 54.4 22.4H53.6H48.8H11.2V19.2ZM6.4 24H54.4C55.28 24 56 24.72 56 25.6V30.4H4.8V25.6C4.8 24.72 5.52 24 6.4 24ZM56 73.6C56 74.48 55.28 75.2 54.4 75.2H6.4C5.52 75.2 4.8 74.48 4.8 73.6V32H56V73.6ZM62.4 67.2C62.4 68.08 61.68 68.8 60.8 68.8H57.6V25.6H62.4V67.2ZM68.8 60.8C68.8 61.68 68.08 62.4 67.2 62.4H64V19.2H68.8V60.8ZM73.6 56H70.4V12.8H75.2V54.4C75.2 55.28 74.48 56 73.6 56Z" fill="#0047B2"/>
<path d="M42.4 28.8C43.2836 28.8 44 28.0837 44 27.2C44 26.3164 43.2836 25.6 42.4 25.6C41.5163 25.6 40.8 26.3164 40.8 27.2C40.8 28.0837 41.5163 28.8 42.4 28.8Z" fill="#0047B2"/>
<path d="M47.2 28.8C48.0837 28.8 48.8 28.0837 48.8 27.2C48.8 26.3164 48.0837 25.6 47.2 25.6C46.3164 25.6 45.6 26.3164 45.6 27.2C45.6 28.0837 46.3164 28.8 47.2 28.8Z" fill="#0047B2"/>
<path d="M52 28.8C52.8836 28.8 53.6 28.0837 53.6 27.2C53.6 26.3164 52.8836 25.6 52 25.6C51.1163 25.6 50.4 26.3164 50.4 27.2C50.4 28.0837 51.1163 28.8 52 28.8Z" fill="#0047B2"/>
<path d="M48.8 22.4C49.6837 22.4 50.4 21.6837 50.4 20.8C50.4 19.9164 49.6837 19.2 48.8 19.2C47.9163 19.2 47.2 19.9164 47.2 20.8C47.2 21.6837 47.9163 22.4 48.8 22.4Z" fill="#0047B2"/>
<path d="M53.6 22.4C54.4837 22.4 55.2 21.6837 55.2 20.8C55.2 19.9164 54.4837 19.2 53.6 19.2C52.7163 19.2 52 19.9164 52 20.8C52 21.6837 52.7163 22.4 53.6 22.4Z" fill="#0047B2"/>
<path d="M58.4 22.4C59.2836 22.4 60 21.6837 60 20.8C60 19.9164 59.2836 19.2 58.4 19.2C57.5163 19.2 56.8 19.9164 56.8 20.8C56.8 21.6837 57.5163 22.4 58.4 22.4Z" fill="#0047B2"/>
<path d="M55.2 16C56.0837 16 56.8 15.2837 56.8 14.4C56.8 13.5164 56.0837 12.8 55.2 12.8C54.3164 12.8 53.6 13.5164 53.6 14.4C53.6 15.2837 54.3164 16 55.2 16Z" fill="#0047B2"/>
<path d="M60 16C60.8836 16 61.6 15.2837 61.6 14.4C61.6 13.5164 60.8836 12.8 60 12.8C59.1163 12.8 58.4 13.5164 58.4 14.4C58.4 15.2837 59.1163 16 60 16Z" fill="#0047B2"/>
<path d="M64.8 16C65.6837 16 66.4 15.2837 66.4 14.4C66.4 13.5164 65.6837 12.8 64.8 12.8C63.9163 12.8 63.2 13.5164 63.2 14.4C63.2 15.2837 63.9163 16 64.8 16Z" fill="#0047B2"/>
<path d="M61.6 9.60002C62.4837 9.60002 63.2 8.88368 63.2 8.00002C63.2 7.11637 62.4837 6.40002 61.6 6.40002C60.7163 6.40002 60 7.11637 60 8.00002C60 8.88368 60.7163 9.60002 61.6 9.60002Z" fill="#0047B2"/>
<path d="M66.4 9.60002C67.2836 9.60002 68 8.88368 68 8.00002C68 7.11637 67.2836 6.40002 66.4 6.40002C65.5163 6.40002 64.8 7.11637 64.8 8.00002C64.8 8.88368 65.5163 9.60002 66.4 9.60002Z" fill="#0047B2"/>
<path d="M71.2 9.60002C72.0837 9.60002 72.8 8.88368 72.8 8.00002C72.8 7.11637 72.0837 6.40002 71.2 6.40002C70.3164 6.40002 69.6 7.11637 69.6 8.00002C69.6 8.88368 70.3164 9.60002 71.2 9.60002Z" fill="#0047B2"/>
<path d="M9.6 44H51.2C52.56 44 53.6 42.96 53.6 41.6V36.8C53.6 35.44 52.56 34.4 51.2 34.4H9.6C8.24 34.4 7.2 35.44 7.2 36.8V41.6C7.2 42.96 8.24 44 9.6 44ZM8.8 36.8C8.8 36.32 9.12 36 9.6 36H51.2C51.68 36 52 36.32 52 36.8V41.6C52 42.08 51.68 42.4 51.2 42.4H9.6C9.12 42.4 8.8 42.08 8.8 41.6V36.8Z" fill="#0047B2"/>
<path d="M28.8 55.2H9.6C8.24 55.2 7.2 56.24 7.2 57.6V70.4C7.2 71.76 8.24 72.8 9.6 72.8H28.8C30.16 72.8 31.2 71.76 31.2 70.4V57.6C31.2 56.24 30.16 55.2 28.8 55.2ZM29.6 70.4C29.6 70.88 29.28 71.2 28.8 71.2H9.6C9.12 71.2 8.8 70.88 8.8 70.4V57.6C8.8 57.12 9.12 56.8 9.6 56.8H28.8C29.28 56.8 29.6 57.12 29.6 57.6V70.4Z" fill="#0047B2"/>
<path d="M53.6 51.2H8.8C8.32 51.2 8 51.52 8 52C8 52.48 8.32 52.8 8.8 52.8H53.6C54.08 52.8 54.4 52.48 54.4 52C54.4 51.52 54.08 51.2 53.6 51.2Z" fill="#0047B2"/>
<path d="M53.6 47.2H8.8C8.32 47.2 8 47.52 8 48C8 48.48 8.32 48.8 8.8 48.8H53.6C54.08 48.8 54.4 48.48 54.4 48C54.4 47.52 54.08 47.2 53.6 47.2Z" fill="#0047B2"/>
<path d="M52.8 55.2H34.4C33.92 55.2 33.6 55.52 33.6 56C33.6 56.48 33.92 56.8 34.4 56.8H52.8C53.28 56.8 53.6 56.48 53.6 56C53.6 55.52 53.28 55.2 52.8 55.2Z" fill="#0047B2"/>
<path d="M52.8 59.2H34.4C33.92 59.2 33.6 59.52 33.6 60C33.6 60.48 33.92 60.8 34.4 60.8H52.8C53.28 60.8 53.6 60.48 53.6 60C53.6 59.52 53.28 59.2 52.8 59.2Z" fill="#0047B2"/>
<path d="M52.8 63.2H34.4C33.92 63.2 33.6 63.52 33.6 64C33.6 64.48 33.92 64.8 34.4 64.8H52.8C53.28 64.8 53.6 64.48 53.6 64C53.6 63.52 53.28 63.2 52.8 63.2Z" fill="#0047B2"/>
<path d="M52.8 67.2H34.4C33.92 67.2 33.6 67.52 33.6 68C33.6 68.48 33.92 68.8 34.4 68.8H52.8C53.28 68.8 53.6 68.48 53.6 68C53.6 67.52 53.28 67.2 52.8 67.2Z" fill="#0047B2"/>
<path d="M52.8 71.2H34.4C33.92 71.2 33.6 71.52 33.6 72C33.6 72.48 33.92 72.8 34.4 72.8H52.8C53.28 72.8 53.6 72.48 53.6 72C53.6 71.52 53.28 71.2 52.8 71.2Z" fill="#0047B2"/>
</svg>
