<svg width="80" height="80" viewBox="0 0 80 80" fill="none" xmlns="http://www.w3.org/2000/svg">
<g clip-path="url(#clip0_22_647)">
<path d="M68 54.4C69.36 54.4 70.4 53.36 70.4 52C70.4 50.64 69.36 49.6 68 49.6H43.2C42.72 49.6 42.4 49.28 42.4 48.8V47.2H60.4C67.2 47.2 72.8 41.6 72.8 34.8C72.8 28 67.2 22.4 60.4 22.4C59.04 22.4 57.76 22.64 56.48 23.04C56.64 22 56.8 21.04 56.8 20C56.8 10.72 49.28 3.20001 40 3.20001C31.2 3.20001 24.08 9.84001 23.28 18.48C22.72 18.4 22.16 18.4 21.6 18.4C13.68 18.4 7.2 24.88 7.2 32.8C7.2 40.72 13.68 47.2 21.6 47.2H37.6V48.8C37.6 49.28 37.28 49.6 36.8 49.6H12C10.64 49.6 9.6 50.64 9.6 52C9.6 53.36 10.64 54.4 12 54.4H15.2V57.28L13.04 59.44C12.72 59.76 12.72 60.24 13.04 60.56C13.36 60.88 13.84 60.88 14.16 60.56L15.2 59.52V64H12C10.64 64 9.6 65.04 9.6 66.4V74.4C9.6 75.76 10.64 76.8 12 76.8H20C21.36 76.8 22.4 75.76 22.4 74.4V66.4C22.4 65.04 21.36 64 20 64H16.8V59.52L17.84 60.56C18 60.72 18.24 60.8 18.4 60.8C18.56 60.8 18.8 60.72 18.96 60.56C19.28 60.24 19.28 59.76 18.96 59.44L16.8 57.28V54.4H39.2V57.28L37.04 59.44C36.72 59.76 36.72 60.24 37.04 60.56C37.36 60.88 37.84 60.88 38.16 60.56L39.2 59.52V64H36C34.64 64 33.6 65.04 33.6 66.4V74.4C33.6 75.76 34.64 76.8 36 76.8H44C45.36 76.8 46.4 75.76 46.4 74.4V66.4C46.4 65.04 45.36 64 44 64H40.8V59.52L41.84 60.56C42 60.72 42.24 60.8 42.4 60.8C42.56 60.8 42.8 60.72 42.96 60.56C43.28 60.24 43.28 59.76 42.96 59.44L40.8 57.28V54.4H63.2V57.28L61.04 59.44C60.72 59.76 60.72 60.24 61.04 60.56C61.36 60.88 61.84 60.88 62.16 60.56L63.2 59.52V64H60C58.64 64 57.6 65.04 57.6 66.4V74.4C57.6 75.76 58.64 76.8 60 76.8H68C69.36 76.8 70.4 75.76 70.4 74.4V66.4C70.4 65.04 69.36 64 68 64H64.8V59.52L65.84 60.56C66 60.72 66.24 60.8 66.4 60.8C66.56 60.8 66.8 60.72 66.96 60.56C67.28 60.24 67.28 59.76 66.96 59.44L64.8 57.28V54.4H68ZM20.8 66.4V74.4C20.8 74.88 20.48 75.2 20 75.2H12C11.52 75.2 11.2 74.88 11.2 74.4V66.4C11.2 65.92 11.52 65.6 12 65.6H20C20.48 65.6 20.8 65.92 20.8 66.4ZM44.8 66.4V74.4C44.8 74.88 44.48 75.2 44 75.2H36C35.52 75.2 35.2 74.88 35.2 74.4V66.4C35.2 65.92 35.52 65.6 36 65.6H44C44.48 65.6 44.8 65.92 44.8 66.4ZM68.8 66.4V74.4C68.8 74.88 68.48 75.2 68 75.2H60C59.52 75.2 59.2 74.88 59.2 74.4V66.4C59.2 65.92 59.52 65.6 60 65.6H68C68.48 65.6 68.8 65.92 68.8 66.4ZM21.6 45.6C14.56 45.6 8.8 39.84 8.8 32.8C8.8 25.76 14.56 20 21.6 20C22.32 20 23.04 20.08 23.92 20.24C24.16 20.32 24.4 20.24 24.56 20.08C24.72 19.92 24.88 19.68 24.88 19.52C25.12 11.2 31.76 4.80001 40 4.80001C48.4 4.80001 55.2 11.6 55.2 20C55.2 21.36 55.04 22.8 54.64 24.16C54.56 24.48 54.64 24.8 54.88 24.96C55.12 25.2 55.44 25.2 55.76 25.04C57.28 24.32 58.8 24 60.4 24C66.32 24 71.2 28.88 71.2 34.8C71.2 40.72 66.32 45.6 60.4 45.6H42.4V35.2H44C48 35.2 51.2 32 51.2 28V25.76C52.64 24.88 53.6 23.36 53.6 21.6C53.6 20.16 52.96 18.8 51.84 17.84C50.72 16.96 49.2 16.56 47.76 16.88C45.84 17.28 44.4 18.8 44.08 20.72C43.76 22.72 44.64 24.72 46.4 25.68V28C46.4 29.36 45.36 30.4 44 30.4H42.4V16.96C44.16 16 45.04 14 44.72 12C44.4 10.08 42.88 8.56001 41.04 8.16001C39.6 7.84001 38.08 8.24001 36.96 9.12001C35.84 10 35.2 11.36 35.2 12.8C35.2 14.56 36.16 16.08 37.6 16.96V37.6H36C34.64 37.6 33.6 36.56 33.6 35.2V32.96C35.36 32 36.24 30 35.92 28C35.6 26.08 34.08 24.56 32.24 24.16C30.8 23.84 29.28 24.24 28.16 25.12C27.04 26 26.4 27.36 26.4 28.8C26.4 30.56 27.36 32.08 28.8 32.96V35.2C28.8 39.2 32 42.4 36 42.4H37.6V45.6H21.6ZM11.2 52C11.2 51.52 11.52 51.2 12 51.2H36.8C38.16 51.2 39.2 50.16 39.2 48.8V41.6C39.2 41.12 38.88 40.8 38.4 40.8H36C32.88 40.8 30.4 38.32 30.4 35.2V32.48C30.4 32.16 30.24 31.84 29.92 31.76C28.72 31.2 28 30.08 28 28.8C28 27.84 28.4 26.96 29.2 26.32C30 25.68 30.96 25.44 31.92 25.68C33.12 25.92 34.16 26.96 34.4 28.24C34.64 29.68 33.92 31.12 32.56 31.76C32.24 31.92 32.08 32.16 32.08 32.48V35.2C32.08 37.44 33.84 39.2 36.08 39.2H38.48C38.96 39.2 39.28 38.88 39.28 38.4V16.48C39.28 16.16 39.12 15.84 38.8 15.76C37.52 15.2 36.8 14.08 36.8 12.8C36.8 11.84 37.2 10.96 38 10.32C38.8 9.68001 39.76 9.44001 40.72 9.68001C41.92 9.92001 42.96 10.96 43.2 12.24C43.44 13.68 42.72 15.12 41.36 15.76C41.04 15.92 40.88 16.16 40.88 16.48V31.2C40.88 31.68 41.2 32 41.68 32H44.08C46.32 32 48.08 30.24 48.08 28V25.28C48.08 24.96 47.92 24.64 47.6 24.56C46.24 24 45.44 22.56 45.76 21.04C46 19.76 46.96 18.72 48.24 18.48C49.2 18.24 50.16 18.48 50.96 19.12C51.68 19.76 52.16 20.64 52.16 21.6C52.16 22.88 51.44 24 50.24 24.56C49.92 24.72 49.76 24.96 49.76 25.28V28C49.76 31.12 47.28 33.6 44.16 33.6H41.76C41.28 33.6 40.96 33.92 40.96 34.4V48.8C40.96 50.16 42 51.2 43.36 51.2H68.16C68.64 51.2 68.96 51.52 68.96 52C68.96 52.48 68.64 52.8 68.16 52.8H12C11.52 52.8 11.2 52.48 11.2 52Z" fill="#0047B2"/>
</g>
<defs>
<clipPath id="clip0_22_647">
<rect width="80" height="80" fill="white"/>
</clipPath>
</defs>
</svg>
