<svg width="80" height="80" viewBox="0 0 80 80" fill="none" xmlns="http://www.w3.org/2000/svg">
<path d="M72.6 10H7C4.76 10 3 11.76 3 14V65.2C3 67.44 4.76 69.2 7 69.2H72.6C74.84 69.2 76.6 67.44 76.6 65.2V14C76.6 11.76 74.84 10 72.6 10ZM7 11.6H72.6C73.96 11.6 75 12.64 75 14V19.6H4.6V14C4.6 12.64 5.64 11.6 7 11.6ZM72.6 67.6H7C5.64 67.6 4.6 66.56 4.6 65.2V21.2H75V65.2C75 66.56 73.96 67.6 72.6 67.6Z" fill="#0047B2"/>
<path d="M70.2 17.2C71.0836 17.2 71.8 16.4837 71.8 15.6C71.8 14.7163 71.0836 14 70.2 14C69.3163 14 68.6 14.7163 68.6 15.6C68.6 16.4837 69.3163 17.2 70.2 17.2Z" fill="#0047B2"/>
<path d="M65.4 17.2C66.2836 17.2 67 16.4837 67 15.6C67 14.7163 66.2836 14 65.4 14C64.5163 14 63.8 14.7163 63.8 15.6C63.8 16.4837 64.5163 17.2 65.4 17.2Z" fill="#0047B2"/>
<path d="M60.6 17.2C61.4837 17.2 62.2 16.4837 62.2 15.6C62.2 14.7163 61.4837 14 60.6 14C59.7163 14 59 14.7163 59 15.6C59 16.4837 59.7163 17.2 60.6 17.2Z" fill="#0047B2"/>
<path d="M53.4 23.6H9.4C8.04 23.6 7 24.64 7 26V62.8C7 64.16 8.04 65.2 9.4 65.2H53.4C54.76 65.2 55.8 64.16 55.8 62.8V26C55.8 24.64 54.76 23.6 53.4 23.6ZM54.2 62.8C54.2 63.28 53.88 63.6 53.4 63.6H9.4C8.92 63.6 8.6 63.28 8.6 62.8V26C8.6 25.52 8.92 25.2 9.4 25.2H53.4C53.88 25.2 54.2 25.52 54.2 26V62.8Z" fill="#0047B2"/>
<path d="M70.2 23.6H60.6C59.24 23.6 58.2 24.64 58.2 26V34C58.2 35.36 59.24 36.4 60.6 36.4H70.2C71.56 36.4 72.6 35.36 72.6 34V26C72.6 24.64 71.56 23.6 70.2 23.6ZM71 34C71 34.48 70.68 34.8 70.2 34.8H60.6C60.12 34.8 59.8 34.48 59.8 34V26C59.8 25.52 60.12 25.2 60.6 25.2H70.2C70.68 25.2 71 25.52 71 26V34Z" fill="#0047B2"/>
<path d="M70.2 38H60.6C59.24 38 58.2 39.04 58.2 40.4V48.4C58.2 49.76 59.24 50.8 60.6 50.8H70.2C71.56 50.8 72.6 49.76 72.6 48.4V40.4C72.6 39.04 71.56 38 70.2 38ZM71 48.4C71 48.88 70.68 49.2 70.2 49.2H60.6C60.12 49.2 59.8 48.88 59.8 48.4V40.4C59.8 39.92 60.12 39.6 60.6 39.6H70.2C70.68 39.6 71 39.92 71 40.4V48.4Z" fill="#0047B2"/>
<path d="M70.2 52.4H60.6C59.24 52.4 58.2 53.44 58.2 54.8V62.8C58.2 64.16 59.24 65.2 60.6 65.2H70.2C71.56 65.2 72.6 64.16 72.6 62.8V54.8C72.6 53.44 71.56 52.4 70.2 52.4ZM71 62.8C71 63.28 70.68 63.6 70.2 63.6H60.6C60.12 63.6 59.8 63.28 59.8 62.8V54.8C59.8 54.32 60.12 54 60.6 54H70.2C70.68 54 71 54.32 71 54.8V62.8Z" fill="#0047B2"/>
<path d="M40.28 40.96L26.6 32.96C25.32 32.24 23.88 32.24 22.6 32.96C21.32 33.6 20.6 34.96 20.6 36.4V52.4C20.6 53.84 21.32 55.12 22.6 55.84C23.24 56.16 23.88 56.4 24.6 56.4C25.32 56.4 25.96 56.24 26.6 55.84L40.28 47.84C41.48 47.12 42.28 45.84 42.28 44.4C42.28 42.96 41.56 41.68 40.28 40.96ZM39.48 46.48L25.8 54.48C25.08 54.96 24.12 54.96 23.4 54.48C22.68 54.08 22.2 53.28 22.2 52.4V36.4C22.2 35.52 22.68 34.72 23.4 34.32C23.8 34.08 24.2 34 24.6 34C25 34 25.4 34.08 25.8 34.32L39.48 42.32C40.2 42.72 40.68 43.52 40.68 44.4C40.68 45.28 40.2 46 39.48 46.48Z" fill="#0047B2"/>
</svg>
